inDegrees=no
num_controls=7
num_derivatives=13
num_iterations=121
num_multipliers=7
num_parameters=0
num_slacks=7
num_states=26
objective=0.448417
objective_accelerations=0.049527
objective_balance=0.007392
objective_effort=0.036428
objective_height=0.350132
objective_ligament=0.004939
solver_duration=1798.044104
status=Solve_Succeeded
success=true
DataType=double
version=3
OpenSimVersion=4.5
endheader
time	/jointset/ground_pelvis/pelvis_tilt/value	/jointset/ground_pelvis/pelvis_tx/value	/jointset/ground_pelvis/pelvis_ty/value	/jointset/hip_l/hip_flexion_l/value	/jointset/hip_l/hip_adduction_l/value	/jointset/hip_l/hip_rotation_l/value	/jointset/back/lumbar_extension/value	/jointset/patellofemoral_l/patellar_flexion_l/value	/jointset/knee_l/knee_flexion_l/value	/jointset/knee_l/knee_adduction_l/value	/jointset/knee_l/knee_rotation_l/value	/jointset/ankle_l/ankle_angle_l/value	/jointset/subtalar_l/subtalar_angle_l/value	/jointset/ground_pelvis/pelvis_tilt/speed	/jointset/ground_pelvis/pelvis_tx/speed	/jointset/ground_pelvis/pelvis_ty/speed	/jointset/hip_l/hip_flexion_l/speed	/jointset/hip_l/hip_adduction_l/speed	/jointset/hip_l/hip_rotation_l/speed	/jointset/back/lumbar_extension/speed	/jointset/patellofemoral_l/patellar_flexion_l/speed	/jointset/knee_l/knee_flexion_l/speed	/jointset/knee_l/knee_adduction_l/speed	/jointset/knee_l/knee_rotation_l/speed	/jointset/ankle_l/ankle_angle_l/speed	/jointset/subtalar_l/subtalar_angle_l/speed	/forceset/tau_hip_flexion_l	/forceset/tau_hip_adduction_l	/forceset/tau_hip_rotation_l	/forceset/tau_knee_flexion_l	/forceset/tau_ankle_angle_l	/forceset/tau_subtalar_angle_l	/forceset/tau_lumbar_extension	lambda_cid13_p0	lambda_cid13_p1	lambda_cid13_p2	lambda_cid13_p3	lambda_cid13_p4	lambda_cid13_p5	lambda_cid14_p0	/jointset/ground_pelvis/pelvis_tilt/accel	/jointset/ground_pelvis/pelvis_tx/accel	/jointset/ground_pelvis/pelvis_ty/accel	/jointset/hip_l/hip_flexion_l/accel	/jointset/hip_l/hip_adduction_l/accel	/jointset/hip_l/hip_rotation_l/accel	/jointset/back/lumbar_extension/accel	/jointset/patellofemoral_l/patellar_flexion_l/accel	/jointset/knee_l/knee_flexion_l/accel	/jointset/knee_l/knee_adduction_l/accel	/jointset/knee_l/knee_rotation_l/accel	/jointset/ankle_l/ankle_angle_l/accel	/jointset/subtalar_l/subtalar_angle_l/accel	gamma_cid13_p0	gamma_cid13_p1	gamma_cid13_p2	gamma_cid13_p3	gamma_cid13_p4	gamma_cid13_p5	gamma_cid14_p0
1	-0.6538943237239601	-0.1278608246768182	0.5949196595053602	1.955934588272863	-0.2947756890015938	0.1402731400712486	-0.4363195327251505	1.208551819298185	1.208551819298637	-0.1745148614554857	0.1745275127466279	0.1027511265503938	-0.02595440736231425	-0.01088567536156465	0.0005391305114481236	-0.003427366075857866	0.01735361471813803	0.000760207372899533	0.003196652889120427	0.0001298030680735596	0.008557556408708896	0.008557556408709427	9.055601633964214e-05	1.954665693242312e-06	0.002695005996151503	0.001297711047042786	-0.4408720710377076	0.002887708892364895	-0.01794454666925438	-0.2536489663190782	0.1343342477150161	0.02786251591251622	0.3546129859152195	-3.321218407016408	-11.43798532212598	1.328376990857994	7.859803972419924	-729.9957146719553	-44.23603043172523	-0.6548051143681457	1.835174325877508	0.2622229839713707	1.720575829108277	-6.343677014639856	-0.3827504362265213	-1.756491188343126	-0.007550222070285419	-4.738727493218729	-4.738727493218991	-0.02488579557739787	0.003110821615811478	-0.5084409394544503	-0.467518930184024	2.920601486100342e-10	1.95671125131311e-09	-4.469529773193709e-09	4.055994190832533e-10	7.096637730057612e-10	-2.05889135654503e-09	1.010436320482174e-09
1.01	-0.6539119484928175	-0.1278423758621859	0.5949713369216455	1.955791618132429	-0.2947865252405434	0.1402163890153731	-0.4363181045208391	1.208400600612635	1.208400600613178	-0.1745133474741738	0.1745272066878599	0.1027527869531612	-0.02596401001899492	0.007377884746373434	0.003151975223010148	0.01376425591062677	-0.04596770521203353	-0.002943783594708238	-0.01453810634010908	0.0001288479973436685	-0.03880846060522684	-0.03880846060522402	0.0001768737028997859	-4.481270802634508e-05	-0.002372120499351686	-0.003237965210393834	-0.4407445370990968	0.002893741093068721	-0.0179554756846332	-0.2536464069525808	0.1343507991742305	0.02789562403403285	0.3545133231164125	-3.309280771239888	-11.45589838472102	1.33288218558542	7.845347489801735	-729.9064746295434	-44.26989672331726	-0.6572804811900447	1.824520824221194	0.261017528672892	1.718664789794738	-6.329369531053971	-0.3666756522158041	-1.78066070338421	-0.0004166193413612761	-4.736612435044167	-4.73661243504363	0.02008248248736349	-0.005824836919849759	-0.5072276392231881	-0.4495522248799709	-5.046100107508664e-09	-1.045384032265152e-08	2.955472945016801e-08	4.42317909698407e-09	-7.815224009290392e-09	2.718450931099778e-08	-7.085410662744262e-09
1.02	-0.6537464228664043	-0.1277977581376532	0.5951949724390712	1.955014832782923	-0.294834891834207	0.1399825518845688	-0.4363174955611829	1.207775507031034	1.207775507031668	-0.1745120319296566	0.1745269820913432	0.1027035002640483	-0.02601956148852127	0.02574440369308343	0.005772912491545708	0.03096425415215343	-0.1094094270961295	-0.006745863569830646	-0.03222056209619353	-3.404586406566794e-05	-0.08621742280169042	-0.08621742280168339	5.086865804535128e-05	1.824711609371886e-05	-0.007494412379853372	-0.007892051522090403	-0.4406170031604854	0.002899773293768358	-0.01796640469999905	-0.2536438475860859	0.1343673506334428	0.02792873215554443	0.3544136603176067	-3.303548946109069	-11.47257609299177	1.337020603399213	7.851484925150428	-729.8999159537655	-44.26980656591726	-0.6675383677271239	1.855766093631906	0.2638414953660678	1.722251080116678	-6.367757405424728	-0.4023682377294428	-1.746030493714108	-0.03993798020622935	-4.747316529724301	-4.747316529724179	-0.06735034186031019	0.02507626118372944	-0.519474016454168	-0.4912009410360111	-6.965556625813138e-09	-1.414335124006729e-08	5.156656423853791e-08	5.926800186606561e-09	-1.202910850045427e-08	4.37368280293744e-08	-1.131457931680708e-08
1.03	-0.6533970527068693	-0.1277268852007767	0.5955905321146527	1.953603581313457	-0.2949213776098614	0.1395720664909229	-0.4363187959644052	1.206676270357394	1.206676270358151	-0.1745123979524809	0.174527573191803	0.102602743617817	-0.02612180707490358	0.04411285599985024	0.008403500255302841	0.04813731924164572	-0.1728052890054516	-0.01052782121945977	-0.0498776002384345	-0.000199701588156703	-0.1336209841266507	-0.1336209841266212	-9.335631360069072e-05	8.175854573043499e-05	-0.01266309103259561	-0.01253223461410373	-0.4402260396514376	0.003027406256601643	-0.01800167186870808	-0.2534880635376188	0.1343924971695694	0.02803222231917598	0.3541955472202117	-3.272234545773228	-11.52847738356037	1.352183763822781	7.78603565361263	-729.5884011102909	-44.32593690260391	-0.6858406818698991	1.824867974006579	0.2629427125104635	1.713276699906664	-6.320165285335965	-0.3625974090627318	-1.775715835552703	-0.0009293898575869703	-4.735533637698579	-4.735533637695466	0.01664356120766908	-0.005761216190398069	-0.516489800021467	-0.4467082607383288	-8.850128412099083e-09	-1.77438719467019e-08	7.345582326736698e-08	7.404768637573136e-09	-1.619900316211678e-08	6.0159645911535e-08	-1.550429206955189e-08
1.04	-0.652864501389309	-0.1276296513271367	0.5961575109364377	1.951559438284565	-0.2950449805381091	0.1389849756436377	-0.4363209629291308	1.205103266529742	1.205103266530622	-0.1745132857978199	0.1745282494465494	0.1024501151829906	-0.0262697107456969	0.0623806352989215	0.01104509984426611	0.0652480833927734	-0.2359877389807707	-0.01416929408841072	-0.06754165282362135	-0.0002073581661274859	-0.1809708536042803	-0.1809708536042373	-5.349584427028552e-05	3.527797360525379e-05	-0.01786877009882794	-0.01702366840429096	-0.4398350761423881	0.003155039219430753	-0.01803693903740186	-0.2533322794891556	0.1344176437056932	0.02813571248280233	0.3539774341228192	-3.24716773552674	-11.58317538747884	1.367030242115396	7.741309832534993	-729.359920239174	-44.34857648822817	-0.7124843188409322	1.835631492092805	0.2660438604072889	1.709790892443756	-6.325075018624112	-0.3742712815938023	-1.74743338230328	-0.008338150982206818	-4.736578160258149	-4.736578160259852	-0.03053325366501587	0.003077860831341608	-0.5268740991521952	-0.46145108067079	-1.340251862057456e-08	-2.91807805680152e-08	1.050533779529654e-07	1.001133247599913e-08	-2.359546481405327e-08	8.687356334533196e-08	-2.306069056282941e-08
1.05	-0.6521492836606447	-0.1275058753031245	0.5968952832865165	1.9488841085123	-0.2952045414670105	0.138221422598699	-0.4363228716049739	1.203057131867197	1.203057131867664	-0.1745134347467786	0.174528241429445	0.102245214207929	-0.02646206006733734	0.08069515489552814	0.01371898923070741	0.08229582417234726	-0.2990856474022554	-0.01774259701874305	-0.08515271911152869	-0.0001933321421798129	-0.2282370939896626	-0.2282370939896173	1.919168021374828e-06	-2.248596480883315e-05	-0.02312014525331434	-0.02144718814647299	-0.4392522447733282	0.003338986431161167	-0.01809295171191298	-0.2530594856116904	0.134458224932597	0.02831041599901305	0.3536562323882653	-3.200794843937899	-11.67604092613216	1.391969742976164	7.635950893358381	-728.9258185868484	-44.42231304901353	-0.747994285261311	1.834196668654539	0.2693966759577754	1.700675008831694	-6.303266460025588	-0.3488306957488828	-1.76553334341921	0.003429707965990987	-4.718793018574654	-4.718793018573205	0.0202991000562538	-0.008077565618596103	-0.525575640757219	-0.4329610456689731	-1.803827815474344e-08	-4.086257631166216e-08	1.369543168778378e-07	1.265316492028323e-08	-3.109275668443581e-08	1.139090776401175e-07	-3.072229798549857e-08
